<svg viewBox="0 0 160 150" fill="none" xmlns="http://www.w3.org/2000/svg">
  <!-- Body -->
  <ellipse cx="78" cy="88" rx="58" ry="44" fill="#5a4350" stroke="#222" stroke-width="4"/>
  <ellipse cx="72" cy="82" rx="38" ry="28" fill="#6b5060" opacity="0.5"/>
  <!-- Head -->
  <ellipse cx="70" cy="52" rx="42" ry="40" fill="#5a4350" stroke="#222" stroke-width="4"/>
  <ellipse cx="66" cy="48" rx="30" ry="28" fill="#6b5060" opacity="0.4"/>
  <!-- Ears -->
  <ellipse cx="38" cy="18" rx="12" ry="15" fill="#5a4350" stroke="#222" stroke-width="3.5"/>
  <ellipse cx="38" cy="18" rx="7" ry="10" fill="#6b5060"/>
  <ellipse cx="96" cy="16" rx="12" ry="15" fill="#5a4350" stroke="#222" stroke-width="3.5"/>
  <ellipse cx="96" cy="16" rx="7" ry="10" fill="#6b5060"/>
  <!-- Snout -->
  <ellipse cx="72" cy="72" rx="34" ry="26" fill="#c4b4ba" stroke="#222" stroke-width="4"/>
  <ellipse cx="72" cy="74" rx="26" ry="18" fill="#b0a0a6" opacity="0.4"/>
  <!-- Eyes -->
  <path d="M52 46 Q56 42 60 46" stroke="#222" stroke-width="3.5" fill="none" stroke-linecap="round"/>
  <path d="M80 46 Q84 42 88 46" stroke="#222" stroke-width="3.5" fill="none" stroke-linecap="round"/>
  <!-- Nostrils -->
  <ellipse cx="60" cy="70" rx="6.5" ry="7" fill="#3a2a30" stroke="#222" stroke-width="2"/>
  <ellipse cx="84" cy="70" rx="6.5" ry="7" fill="#3a2a30" stroke="#222" stroke-width="2"/>
  <!-- Tusks -->
  <path d="M54 94 L50 106 L58 98" fill="white" stroke="#222" stroke-width="2.5" stroke-linejoin="round"/>
  <path d="M90 94 L94 106 L86 98" fill="white" stroke="#222" stroke-width="2.5" stroke-linejoin="round"/>
  <!-- Legs -->
  <ellipse cx="42" cy="132" rx="14" ry="10" fill="#5a4350" stroke="#222" stroke-width="3.5"/>
  <ellipse cx="74" cy="134" rx="14" ry="10" fill="#5a4350" stroke="#222" stroke-width="3.5"/>
  <ellipse cx="110" cy="132" rx="14" ry="10" fill="#5a4350" stroke="#222" stroke-width="3.5"/>
</svg>
